<svg width="264" height="50" viewBox="0 0 264 50" fill="none" xmlns="http://www.w3.org/2000/svg">
<path d="M73.176 38.632C75.144 38.632 76.668 38.356 77.748 37.804C78.828 37.252 79.368 36.448 79.368 35.392C79.368 34.456 79.044 33.652 78.396 32.98C77.748 32.284 76.944 31.696 75.984 31.216C75.024 30.736 73.716 30.172 72.06 29.524C71.916 29.476 71.568 29.344 71.016 29.128C68.76 28.216 67.02 27.304 65.796 26.392C64.596 25.48 63.996 24.304 63.996 22.864C63.996 21.256 64.632 20.044 65.904 19.228C67.176 18.412 68.808 18.004 70.8 18.004C72.264 18.004 73.608 18.196 74.832 18.58C76.08 18.94 77.064 19.444 77.784 20.092C78.528 20.74 78.9 21.472 78.9 22.288C78.612 22.432 78.336 22.504 78.072 22.504C77.784 22.504 77.484 22.444 77.172 22.324C76.884 22.18 76.452 21.952 75.876 21.64C74.94 21.136 74.064 20.74 73.248 20.452C72.432 20.14 71.472 19.984 70.368 19.984C68.976 19.984 67.848 20.224 66.984 20.704C66.12 21.184 65.688 21.856 65.688 22.72C65.688 23.392 65.976 24.004 66.552 24.556C67.152 25.108 67.896 25.6 68.784 26.032C69.696 26.44 70.908 26.932 72.42 27.508C74.34 28.252 75.924 28.948 77.172 29.596C78.42 30.244 79.476 31.072 80.34 32.08C81.228 33.064 81.672 34.24 81.672 35.608C81.672 37.216 80.904 38.464 79.368 39.352C77.832 40.216 75.924 40.648 73.644 40.648C71.844 40.648 70.068 40.384 68.316 39.856C66.564 39.328 65.064 38.548 63.816 37.516C62.568 36.46 61.776 35.2 61.44 33.736C61.44 33.088 61.62 32.536 61.98 32.08C62.34 31.6 62.784 31.36 63.312 31.36C63.312 32.92 63.744 34.252 64.608 35.356C65.496 36.436 66.684 37.252 68.172 37.804C69.684 38.356 71.352 38.632 73.176 38.632ZM101.098 39.82C100.666 39.82 100.318 39.64 100.054 39.28C99.8137 38.896 99.5977 38.32 99.4057 37.552C99.2137 36.76 98.9137 35.392 98.5057 33.448C98.0977 35.056 97.3297 36.34 96.2017 37.3C95.0737 38.236 93.6937 38.704 92.0617 38.704C90.5737 38.704 89.3137 38.188 88.2817 37.156C87.2737 36.1 86.5177 34.72 86.0137 33.016C85.5097 31.288 85.2577 29.428 85.2577 27.436C85.2577 26.524 85.3417 25.744 85.5097 25.096C85.7017 24.424 85.9297 23.92 86.1937 23.584C86.4817 23.248 86.7577 23.092 87.0217 23.116C87.3097 23.116 87.4537 23.308 87.4537 23.692C87.4537 24.004 87.3697 24.496 87.2017 25.168C87.0337 25.912 86.9497 26.764 86.9497 27.724C86.9497 29.164 87.1537 30.568 87.5617 31.936C87.9937 33.304 88.6177 34.432 89.4337 35.32C90.2737 36.184 91.2577 36.616 92.3857 36.616C93.3217 36.616 94.1737 36.34 94.9417 35.788C95.7097 35.236 96.3097 34.54 96.7417 33.7C97.1977 32.86 97.4257 32.032 97.4257 31.216V25.492C97.6897 24.988 98.0497 24.736 98.5057 24.736C98.9137 24.736 99.1897 25.084 99.3337 25.78C99.4777 26.476 99.5497 27.46 99.5497 28.732C99.5497 29.812 99.5377 30.64 99.5137 31.216C99.6577 32.008 99.8737 32.812 100.162 33.628C100.474 34.444 100.858 35.368 101.314 36.4C101.866 37.672 102.142 38.452 102.142 38.74C102.142 39.46 101.794 39.82 101.098 39.82ZM105.214 35.752C105.55 35.488 105.874 35.356 106.186 35.356C106.474 35.356 106.75 35.44 107.014 35.608C107.302 35.776 107.59 35.992 107.878 36.256C108.166 36.496 108.394 36.676 108.562 36.796C109.114 37.228 109.87 37.564 110.83 37.804C111.79 38.044 112.81 38.164 113.89 38.164C115.114 38.164 116.206 37.936 117.166 37.48C118.15 37 118.642 36.364 118.642 35.572C118.642 34.852 118.378 34.288 117.85 33.88C117.322 33.448 116.686 33.136 115.942 32.944C115.198 32.752 114.214 32.572 112.99 32.404C111.334 32.212 110.014 31.972 109.03 31.684C108.07 31.396 107.302 30.928 106.726 30.28C106.15 29.608 105.862 28.672 105.862 27.472C105.862 26.176 106.474 25.216 107.698 24.592C108.922 23.944 110.326 23.62 111.91 23.62C113.35 23.62 114.574 23.932 115.582 24.556C116.614 25.156 117.142 26.02 117.166 27.148C117.214 27.796 117.118 28.312 116.878 28.696C116.638 29.056 116.35 29.236 116.014 29.236C115.822 29.236 115.654 29.164 115.51 29.02C115.39 28.876 115.33 28.684 115.33 28.444C115.33 28.06 115.462 27.64 115.726 27.184C115.606 26.608 115.21 26.176 114.538 25.888C113.89 25.6 113.11 25.456 112.198 25.456C110.854 25.456 109.786 25.708 108.994 26.212C108.202 26.692 107.806 27.268 107.806 27.94C107.806 28.66 108.094 29.212 108.67 29.596C109.246 29.98 109.942 30.256 110.758 30.424C111.598 30.568 112.786 30.712 114.322 30.856C115.594 31.024 116.626 31.228 117.418 31.468C118.234 31.708 118.918 32.176 119.47 32.872C120.022 33.544 120.298 34.516 120.298 35.788C120.298 37.108 119.686 38.152 118.462 38.92C117.238 39.664 115.774 40.036 114.07 40.036C111.886 40.036 109.93 39.664 108.202 38.92C106.498 38.176 105.502 37.12 105.214 35.752ZM127.31 39.928C127.19 39.952 127.058 39.496 126.914 38.56C126.794 37.624 126.626 36.016 126.41 33.736C126.074 29.992 125.69 26.56 125.258 23.44C124.85 20.32 124.334 17.62 123.71 15.34C123.662 15.148 123.734 14.98 123.926 14.836C124.118 14.692 124.382 14.62 124.718 14.62C124.886 14.62 125.018 14.632 125.114 14.656C125.714 16.288 126.134 17.728 126.374 18.976C126.638 20.224 126.878 21.76 127.094 23.584L127.274 24.988C128.714 24.124 130.034 23.692 131.234 23.692C133.418 23.692 134.966 24.688 135.878 26.68C136.814 28.648 137.282 31.456 137.282 35.104C137.282 36.496 137.198 37.672 137.03 38.632C136.862 39.568 136.658 40.036 136.418 40.036C136.106 40.036 135.758 39.808 135.374 39.352V38.164L135.41 34.24C135.41 33.496 135.386 32.572 135.338 31.468C135.266 29.596 134.882 28.18 134.186 27.22C133.514 26.26 132.35 25.78 130.694 25.78C129.59 25.78 128.558 26.188 127.598 27.004C127.598 27.916 127.634 28.852 127.706 29.812C127.802 30.772 127.91 31.708 128.03 32.62C128.198 33.892 128.318 35.02 128.39 36.004C128.486 36.964 128.534 38.032 128.534 39.208C128.39 39.496 128.222 39.688 128.03 39.784C127.862 39.88 127.622 39.928 127.31 39.928ZM142.848 40.036C142.296 40.036 141.852 39.232 141.516 37.624C141.18 35.992 140.964 34.588 140.868 33.412C140.772 32.236 140.64 30.376 140.472 27.832C140.448 27.424 140.436 26.896 140.436 26.248C140.436 25.432 140.496 24.868 140.616 24.556C140.76 24.244 140.988 24.088 141.3 24.088C141.564 24.088 141.768 24.148 141.912 24.268C142.08 24.364 142.224 24.532 142.344 24.772L142.308 26.212C142.308 27.748 142.38 29.2 142.524 30.568C142.692 31.936 142.944 33.772 143.28 36.076C143.472 37.084 143.604 37.912 143.676 38.56C143.724 38.896 143.664 39.232 143.496 39.568C143.328 39.88 143.112 40.036 142.848 40.036ZM141.948 20.236C141.42 20.236 141.024 20.032 140.76 19.624C140.52 19.216 140.4 18.712 140.4 18.112C140.4 17.848 140.412 17.656 140.436 17.536C140.412 17.152 140.628 16.96 141.084 16.96C141.42 16.96 141.756 17.044 142.092 17.212C142.452 17.356 142.56 17.464 142.416 17.536C142.656 18.16 142.776 18.652 142.776 19.012C142.776 19.324 142.704 19.576 142.56 19.768C142.416 19.936 142.212 20.092 141.948 20.236Z" fill="#ED7161"/>
<path d="M172.825 40.036C172.537 40.036 172.333 39.964 172.213 39.82C172.117 39.676 172.069 39.472 172.069 39.208C172.069 38.68 172.189 37.864 172.429 36.76C172.693 35.752 172.825 34.924 172.825 34.276C172.825 32.404 172.681 30.976 172.393 29.992H171.277C170.293 29.992 169.009 29.968 167.425 29.92L164.041 29.884H159.181L159.253 31.288C159.253 32.392 159.433 33.772 159.793 35.428C159.913 36.1 160.021 36.784 160.117 37.48C160.237 38.152 160.297 38.764 160.297 39.316V39.64C160.057 39.88 159.805 40 159.541 40C158.917 40 158.425 39.268 158.065 37.804C157.705 36.316 157.525 34.528 157.525 32.44C157.525 31.6 157.561 30.772 157.633 29.956C157.105 29.932 156.745 29.848 156.553 29.704C156.361 29.536 156.265 29.284 156.265 28.948C156.265 28.684 156.337 28.504 156.481 28.408C156.649 28.312 156.937 28.24 157.345 28.192L157.309 27.22L157.417 25.564C157.585 22.852 157.837 20.644 158.173 18.94C158.509 17.236 159.229 15.76 160.333 14.512C161.437 13.264 163.093 12.64 165.301 12.64C167.821 12.64 169.789 13.996 171.205 16.708C172.621 19.42 173.581 22.444 174.085 25.78C174.589 29.116 174.841 31.984 174.841 34.384C174.841 35.248 174.817 36.004 174.769 36.652C174.721 37.276 174.625 38.056 174.481 38.992C173.929 39.688 173.377 40.036 172.825 40.036ZM172.249 28.588C171.793 24.148 170.977 20.668 169.801 18.148C168.625 15.604 166.861 14.332 164.509 14.332C162.757 14.332 161.461 15.148 160.621 16.78C159.805 18.388 159.313 20.116 159.145 21.964C158.977 23.812 158.893 25.888 158.893 28.192L172.249 28.588ZM184.244 39.964C183.116 39.964 182.132 39.58 181.292 38.812C180.476 38.044 179.852 37.048 179.42 35.824C179.012 34.6 178.808 33.328 178.808 32.008C178.808 29.704 179.288 27.76 180.248 26.176C181.232 24.592 182.72 23.8 184.712 23.8C185.912 23.8 186.956 24.016 187.844 24.448C188.756 24.856 189.944 25.552 191.408 26.536L192.344 27.184C192.224 26.392 192.044 25.48 191.804 24.448C191.564 23.416 191.408 22.708 191.336 22.324C190.928 20.452 190.628 19.06 190.436 18.148C190.268 17.212 190.184 16.384 190.184 15.664C190.184 14.392 190.544 13.756 191.264 13.756C191.528 14.332 191.84 15.568 192.2 17.464C192.56 19.336 193.016 21.904 193.568 25.168C194.144 28.624 194.648 31.444 195.08 33.628C195.512 35.812 195.872 37.18 196.16 37.732C196.16 38.284 195.752 38.56 194.936 38.56C194.312 38.56 193.88 38.2 193.64 37.48C193.424 36.76 193.292 35.5 193.244 33.7H192.956C191.948 35.524 190.64 37.024 189.032 38.2C187.424 39.376 185.828 39.964 184.244 39.964ZM184.712 38.2C185.696 38.2 186.752 37.792 187.88 36.976C189.032 36.136 190.004 35.128 190.796 33.952C191.588 32.752 191.984 31.672 191.984 30.712V29.632C189.512 27.04 187.232 25.744 185.144 25.744C183.68 25.744 182.552 26.284 181.76 27.364C180.968 28.42 180.572 29.812 180.572 31.54L180.608 32.296C180.752 34.12 181.16 35.56 181.832 36.616C182.504 37.672 183.464 38.2 184.712 38.2ZM204.459 39.964C203.331 39.964 202.347 39.58 201.507 38.812C200.691 38.044 200.067 37.048 199.635 35.824C199.227 34.6 199.023 33.328 199.023 32.008C199.023 29.704 199.503 27.76 200.463 26.176C201.447 24.592 202.935 23.8 204.927 23.8C206.127 23.8 207.171 24.016 208.059 24.448C208.971 24.856 210.159 25.552 211.623 26.536L212.559 27.184C212.439 26.392 212.259 25.48 212.019 24.448C211.779 23.416 211.623 22.708 211.551 22.324C211.143 20.452 210.843 19.06 210.651 18.148C210.483 17.212 210.399 16.384 210.399 15.664C210.399 14.392 210.759 13.756 211.479 13.756C211.743 14.332 212.055 15.568 212.415 17.464C212.775 19.336 213.231 21.904 213.783 25.168C214.359 28.624 214.863 31.444 215.295 33.628C215.727 35.812 216.087 37.18 216.375 37.732C216.375 38.284 215.967 38.56 215.151 38.56C214.527 38.56 214.095 38.2 213.855 37.48C213.639 36.76 213.507 35.5 213.459 33.7H213.171C212.163 35.524 210.855 37.024 209.247 38.2C207.639 39.376 206.043 39.964 204.459 39.964ZM204.927 38.2C205.911 38.2 206.967 37.792 208.095 36.976C209.247 36.136 210.219 35.128 211.011 33.952C211.803 32.752 212.199 31.672 212.199 30.712V29.632C209.727 27.04 207.447 25.744 205.359 25.744C203.895 25.744 202.767 26.284 201.975 27.364C201.183 28.42 200.787 29.812 200.787 31.54L200.823 32.296C200.967 34.12 201.375 35.56 202.047 36.616C202.719 37.672 203.679 38.2 204.927 38.2ZM220.93 40.036C220.378 40.036 219.934 39.232 219.598 37.624C219.262 35.992 219.046 34.588 218.95 33.412C218.854 32.236 218.722 30.376 218.554 27.832C218.53 27.424 218.518 26.896 218.518 26.248C218.518 25.432 218.578 24.868 218.698 24.556C218.842 24.244 219.07 24.088 219.382 24.088C219.646 24.088 219.85 24.148 219.994 24.268C220.162 24.364 220.306 24.532 220.426 24.772L220.39 26.212C220.39 27.748 220.462 29.2 220.606 30.568C220.774 31.936 221.026 33.772 221.362 36.076C221.554 37.084 221.686 37.912 221.758 38.56C221.806 38.896 221.746 39.232 221.578 39.568C221.41 39.88 221.194 40.036 220.93 40.036ZM220.03 20.236C219.502 20.236 219.106 20.032 218.842 19.624C218.602 19.216 218.482 18.712 218.482 18.112C218.482 17.848 218.494 17.656 218.518 17.536C218.494 17.152 218.71 16.96 219.166 16.96C219.502 16.96 219.838 17.044 220.174 17.212C220.534 17.356 220.642 17.464 220.498 17.536C220.738 18.16 220.858 18.652 220.858 19.012C220.858 19.324 220.786 19.576 220.642 19.768C220.498 19.936 220.294 20.092 220.03 20.236ZM233.843 40.036C231.035 40.036 228.851 39.4 227.291 38.128C225.755 36.832 224.987 34.84 224.987 32.152C224.987 30.784 225.323 29.488 225.995 28.264C226.691 27.016 227.615 26.02 228.767 25.276C229.943 24.508 231.203 24.124 232.547 24.124C233.915 24.124 235.079 24.424 236.039 25.024C236.999 25.6 237.479 26.44 237.479 27.544C237.479 28.312 237.335 28.864 237.047 29.2C236.783 29.512 236.483 29.668 236.147 29.668C236.147 28.516 235.835 27.58 235.211 26.86C234.587 26.14 233.699 25.78 232.547 25.78C231.395 25.78 230.399 26.092 229.559 26.716C228.719 27.316 228.071 28.12 227.615 29.128C227.183 30.112 226.967 31.144 226.967 32.224C226.967 34.504 227.735 36.052 229.271 36.868C230.831 37.684 232.883 38.092 235.427 38.092C236.291 38.092 237.419 38.044 238.811 37.948C238.859 37.948 238.967 37.996 239.135 38.092C239.303 38.188 239.435 38.248 239.531 38.272V38.488C239.531 39.184 238.919 39.616 237.695 39.784C236.471 39.952 235.187 40.036 233.843 40.036ZM246.779 40C246.539 40.048 246.383 40.072 246.311 40.072C245.567 40.072 245.051 39.52 244.763 38.416C244.499 37.312 244.367 35.764 244.367 33.772C244.367 32.956 244.391 31.684 244.439 29.956C244.487 28.9 244.511 28.108 244.511 27.58C241.559 27.58 240.083 27.244 240.083 26.572C240.083 26.356 240.107 26.188 240.155 26.068C240.227 25.948 240.371 25.888 240.587 25.888L244.511 25.636C244.487 24.46 244.427 23.176 244.331 21.784C244.235 20.536 244.175 19.384 244.151 18.328C244.151 18.064 244.259 17.884 244.475 17.788C244.691 17.668 244.919 17.608 245.159 17.608C245.447 17.608 245.687 17.764 245.879 18.076C246.071 18.364 246.167 18.664 246.167 18.976L246.419 25.564L249.407 25.708C249.863 25.66 250.247 25.744 250.559 25.96C250.895 26.176 251.075 26.536 251.099 27.04C250.595 27.256 250.043 27.388 249.443 27.436C248.843 27.484 247.835 27.508 246.419 27.508C246.419 29.74 246.527 33.412 246.743 38.524C246.743 39.052 246.743 39.424 246.743 39.64C246.767 39.832 246.779 39.952 246.779 40Z" fill="#546A79"/>
<path d="M40.4801 31.9929C35.2848 31.9929 31.0727 29.4343 31.0727 26.2786V11.9929C31.0727 8.83714 35.2848 6.27856 40.4801 6.27856C45.6754 6.27856 49.8875 8.83714 49.8875 11.9929V26.2786C49.8875 29.4343 45.6754 31.9929 40.4801 31.9929Z" fill="#546A79"/>
<path d="M20.4893 37.7071C15.294 37.7071 11.0818 35.1486 11.0818 31.9929V17.7071C11.0818 14.5514 15.294 11.9929 20.4893 11.9929C25.6845 11.9929 29.8967 14.5514 29.8967 17.7071V31.9929C29.8967 35.1486 25.6845 37.7071 20.4893 37.7071Z" fill="#546A79"/>
<path d="M34.6005 30.5643C40.4448 30.5643 45.1838 33.7629 45.1838 37.7071C45.1838 41.6514 40.4448 44.85 34.6005 44.85C28.7549 44.85 24.0171 41.6514 24.0171 37.7071C24.0171 33.7629 28.7549 30.5643 34.6005 30.5643Z" fill="#E6E6E6"/>
<path d="M45.158 37.6771C44.5876 37.6771 44.0173 37.44 43.5658 36.9643C38.6233 31.7329 30.5753 31.7329 25.6328 36.9643C24.6803 37.9686 23.1963 37.9029 22.3167 36.8129C21.4371 35.7229 21.4959 34.0229 22.4484 33.0157C29.1477 25.9271 40.0509 25.9271 46.7514 33.0157C47.7039 34.0229 47.7615 35.7229 46.8819 36.8129C46.4197 37.3857 45.7894 37.6771 45.158 37.6771Z" fill="#ED7161"/>
<path d="M40.4719 14.7829C36.0962 14.7829 33.4175 12.9486 33.4175 11.9486C33.4175 10.9486 36.0962 9.11285 40.4719 9.11285C44.8463 9.11285 47.5251 10.9486 47.5251 11.9486C47.5251 12.9486 44.8463 14.7829 40.4719 14.7829Z" fill="white"/>
<path d="M20.4811 20.4986C16.1054 20.4986 13.4267 18.6629 13.4267 17.6629C13.4267 16.6629 16.1054 14.8286 20.4811 14.8286C24.8555 14.8286 27.5343 16.6629 27.5343 17.6629C27.5343 18.6629 24.8555 20.4986 20.4811 20.4986Z" fill="white"/>
<path d="M40.5812 10.5643C39.283 10.5643 38.2306 11.2043 38.2306 11.9929C38.2306 12.7814 39.283 13.4214 40.5812 13.4214C41.8806 13.4214 42.9331 12.7814 42.9331 11.9929C42.9331 11.2043 41.8806 10.5643 40.5812 10.5643Z" fill="#ED7161"/>
<path d="M20.5904 16.2786C19.2922 16.2786 18.2397 16.9186 18.2397 17.7071C18.2397 18.4957 19.2922 19.1357 20.5904 19.1357C21.8898 19.1357 22.9423 18.4957 22.9423 17.7071C22.9423 16.9186 21.8898 16.2786 20.5904 16.2786Z" fill="#ED7161"/>
</svg>
