<?xml version="1.0" standalone="no"?>
<!DOCTYPE svg PUBLIC "-//W3C//DTD SVG 20010904//EN"
 "http://www.w3.org/TR/2001/REC-SVG-20010904/DTD/svg10.dtd">
<svg version="1.0" xmlns="http://www.w3.org/2000/svg"
 width="928.000000pt" height="928.000000pt" viewBox="0 0 928.000000 928.000000"
 preserveAspectRatio="xMidYMid meet">
<metadata>
Created by potrace 1.14, written by Peter Selinger 2001-2017
</metadata>
<g transform="translate(0.000000,928.000000) scale(0.100000,-0.100000)"
fill="#000000" stroke="none">
<path d="M6917 8214 c-1 -1 -56 -5 -122 -8 -66 -3 -131 -8 -145 -10 -23 -4
-112 -15 -170 -21 -14 -1 -38 -5 -55 -9 -16 -3 -44 -8 -62 -10 -17 -3 -66 -11
-110 -20 -43 -9 -88 -18 -100 -20 -43 -9 -180 -48 -273 -79 -52 -17 -98 -32
-102 -33 -5 -1 -11 -3 -15 -4 -5 -1 -11 -2 -15 -1 -5 0 -8 -4 -8 -9 0 -6 -7
-10 -15 -10 -46 0 -396 -185 -462 -245 -6 -5 -26 -21 -45 -35 -54 -40 -198
-190 -198 -206 0 -8 -4 -14 -9 -14 -11 0 -88 -147 -95 -180 -2 -14 -7 -32 -10
-40 -3 -8 -8 -33 -11 -55 -8 -55 -7 -2817 1 -2885 8 -66 27 -126 64 -200 28
-56 28 -56 7 -58 -12 0 -33 -3 -47 -6 -14 -2 -41 -7 -60 -10 -70 -13 -223 -47
-232 -52 -4 -3 -8 -2 -9 3 -1 4 -2 487 -3 1073 l-3 1065 -30 82 c-16 45 -45
107 -64 138 -43 71 -159 197 -236 256 -32 24 -60 46 -63 49 -10 11 -138 89
-201 123 -94 51 -257 118 -384 160 -99 32 -196 60 -202 58 -2 0 -24 6 -50 14
-25 8 -50 12 -55 9 -4 -3 -8 -1 -8 3 0 5 -8 9 -17 10 -10 0 -56 8 -103 17 -47
9 -101 19 -120 22 -19 3 -48 7 -65 9 -16 3 -55 7 -85 10 -30 3 -73 8 -95 11
-22 3 -83 7 -135 9 -52 2 -95 5 -95 5 0 6 -288 4 -291 -2 -3 -5 -13 -4 -23 2
-10 5 -20 7 -22 5 -3 -2 -47 -6 -99 -10 -152 -9 -172 -11 -350 -36 -104 -14
-121 -17 -203 -35 -39 -8 -83 -18 -97 -20 -79 -15 -334 -91 -395 -118 -16 -7
-57 -23 -90 -36 -142 -55 -348 -174 -466 -270 -62 -50 -153 -145 -186 -194
-15 -22 -30 -43 -33 -46 -13 -13 -50 -91 -50 -104 0 -9 -5 -16 -11 -16 -6 0
-9 -6 -7 -12 3 -7 -3 -34 -13 -61 -17 -46 -18 -133 -16 -1505 2 -801 6 -1467
9 -1478 17 -56 40 -119 55 -147 51 -100 173 -242 268 -312 22 -16 42 -32 45
-36 17 -22 267 -162 375 -210 27 -12 79 -32 85 -33 3 -1 10 -4 15 -7 38 -24
405 -129 505 -145 14 -2 36 -7 50 -10 13 -3 40 -7 60 -10 19 -2 42 -6 50 -9
16 -4 65 -11 145 -21 28 -3 64 -7 80 -9 88 -11 243 -18 430 -18 224 -1 344 6
525 28 76 9 136 8 158 -4 12 -6 48 -14 82 -18 56 -5 60 -8 61 -32 2 -70 18
-156 44 -231 23 -69 95 -211 118 -235 7 -7 19 -23 27 -35 36 -54 134 -156 209
-220 23 -19 48 -41 56 -47 7 -7 18 -13 24 -13 6 0 11 -4 11 -8 0 -10 184 -132
199 -132 5 0 11 -4 13 -8 4 -9 211 -112 286 -141 28 -12 73 -30 100 -40 90
-36 347 -113 422 -127 14 -2 45 -9 70 -14 63 -14 100 -21 135 -26 17 -2 36 -6
44 -9 8 -3 40 -8 70 -11 31 -3 67 -7 81 -10 14 -3 43 -7 65 -9 22 -2 76 -7
120 -12 165 -16 699 -8 845 12 14 2 48 6 75 10 28 3 61 8 75 11 14 2 43 6 65
9 22 3 54 8 70 12 17 3 37 7 45 8 25 4 243 54 285 67 22 6 43 13 48 14 4 1 8
2 10 4 1 1 9 3 17 5 36 8 207 69 282 100 45 19 87 35 93 35 6 0 17 6 24 13 6
6 15 12 19 12 4 1 32 14 62 30 30 16 58 29 62 30 4 0 13 6 19 13 7 6 18 12 25
12 7 0 14 3 16 8 2 4 23 18 48 31 25 14 47 27 50 30 3 3 28 22 55 41 28 19 52
38 53 42 2 4 8 8 13 8 29 0 238 216 303 314 31 46 56 88 56 95 0 6 5 11 10 11
6 0 10 6 10 13 0 7 9 31 19 53 31 63 63 208 64 292 1 17 7 22 27 23 60 2 150
21 175 37 6 4 12 7 15 8 15 2 69 32 100 53 61 44 100 84 138 146 36 56 77 145
68 145 -3 0 -1 14 4 31 19 65 12 173 -16 253 -44 125 -118 201 -409 424 -5 4
-32 23 -60 42 -27 19 -51 37 -53 42 -2 4 -9 8 -17 8 -7 0 -18 7 -25 15 -10 12
-10 15 1 16 28 1 138 33 199 56 8 4 17 7 20 7 27 7 175 69 255 108 118 56 168
85 248 141 33 23 69 49 81 57 48 32 196 189 230 243 31 48 64 111 71 137 1 3
4 12 8 20 30 77 31 134 31 1545 -1 781 -3 1436 -6 1455 -9 57 -48 162 -79 213
-16 26 -29 49 -29 51 0 14 -176 197 -231 241 -126 100 -337 211 -559 294 -111
41 -312 99 -410 117 -14 2 -45 9 -70 14 -41 9 -98 18 -205 35 -57 9 -155 19
-305 31 -65 5 -438 12 -443 8z"/>
</g>
</svg>
